<svg width="24" height="24" viewBox="0 0 24 24" fill="none" xmlns="http://www.w3.org/2000/svg">
<g clip-path="url(#clip0_16_6382)">
<path fill-rule="evenodd" clip-rule="evenodd" d="M22.5 12.75V18.75C22.5 19.5784 21.8284 20.25 21 20.25H3C2.17157 20.25 1.5 19.5784 1.5 18.75V12.75C1.5 11.9216 2.17157 11.25 3 11.25H6.75C7.16421 11.25 7.5 11.5858 7.5 12C7.5 12.4142 7.16421 12.75 6.75 12.75H3V18.75H21V12.75H17.25C16.8358 12.75 16.5 12.4142 16.5 12C16.5 11.5858 16.8358 11.25 17.25 11.25H21C21.8284 11.25 22.5 11.9216 22.5 12.75ZM11.4694 12.5306C11.6101 12.6715 11.8009 12.7506 12 12.7506C12.1991 12.7506 12.3899 12.6715 12.5306 12.5306L17.0306 8.03063C17.3237 7.73757 17.3237 7.26243 17.0306 6.96938C16.7376 6.67632 16.2624 6.67632 15.9694 6.96938L12.75 10.1897V2.25C12.75 1.83579 12.4142 1.5 12 1.5C11.5858 1.5 11.25 1.83579 11.25 2.25V10.1897L8.03063 6.96938C7.73757 6.67632 7.26243 6.67632 6.96938 6.96938C6.67632 7.26243 6.67632 7.73757 6.96938 8.03063L11.4694 12.5306ZM18.75 15.75C18.75 15.1287 18.2463 14.625 17.625 14.625C17.0037 14.625 16.5 15.1287 16.5 15.75C16.5 16.3713 17.0037 16.875 17.625 16.875C18.2463 16.875 18.75 16.3713 18.75 15.75Z" fill="white"/>
</g>
<defs>
<clipPath id="clip0_16_6382">
<rect width="24" height="24" fill="white"/>
</clipPath>
</defs>
</svg>
