<svg width="24" height="25" viewBox="0 0 24 25" fill="none" xmlns="http://www.w3.org/2000/svg">
<g clip-path="url(#clip0_16_6399)">
<path fill-rule="evenodd" clip-rule="evenodd" d="M22.5 11.75C22.4974 9.26579 20.4842 7.25258 18 7.25H14.2688C13.9959 7.23406 9.24187 6.89937 4.71469 3.1025C4.26836 2.72765 3.64529 2.64529 3.11689 2.8913C2.58849 3.13731 2.25044 3.66714 2.25 4.25V19.25C2.25008 19.833 2.58799 20.3632 3.11646 20.6094C3.64494 20.8557 4.26823 20.7734 4.71469 20.3984C8.25562 17.4284 11.9334 16.5772 13.5 16.3391V19.3128C13.4994 19.8148 13.7499 20.2839 14.1675 20.5625L15.1987 21.2497C15.6032 21.5196 16.1134 21.5768 16.5676 21.403C17.0217 21.2292 17.3635 20.846 17.4844 20.375L18.5878 16.2163C20.8269 15.9183 22.4995 14.0088 22.5 11.75ZM3.75 19.2434V4.25C7.76344 7.61656 11.8716 8.46875 13.5 8.67875V14.8175C11.8734 15.0312 7.76625 15.8816 3.75 19.2434ZM16.0312 19.9934V20.0037L15 19.3166V16.25H17.025L16.0312 19.9934ZM18 14.75H15V8.75H18C19.6569 8.75 21 10.0931 21 11.75C21 13.4069 19.6569 14.75 18 14.75Z" fill="white"/>
</g>
<defs>
<clipPath id="clip0_16_6399">
<rect width="24" height="24" fill="white" transform="translate(0 0.5)"/>
</clipPath>
</defs>
</svg>
