<svg width="24" height="25" viewBox="0 0 24 25" fill="none" xmlns="http://www.w3.org/2000/svg">
<g clip-path="url(#clip0_16_6407)">
<path fill-rule="evenodd" clip-rule="evenodd" d="M13.125 17.375C13.125 17.9963 12.6213 18.5 12 18.5C11.3787 18.5 10.875 17.9963 10.875 17.375C10.875 16.7537 11.3787 16.25 12 16.25C12.6213 16.25 13.125 16.7537 13.125 17.375ZM12 7.25C9.93188 7.25 8.25 8.76406 8.25 10.625V11C8.25 11.4142 8.58579 11.75 9 11.75C9.41421 11.75 9.75 11.4142 9.75 11V10.625C9.75 9.59375 10.7597 8.75 12 8.75C13.2403 8.75 14.25 9.59375 14.25 10.625C14.25 11.6562 13.2403 12.5 12 12.5C11.5858 12.5 11.25 12.8358 11.25 13.25V14C11.25 14.4142 11.5858 14.75 12 14.75C12.4142 14.75 12.75 14.4142 12.75 14V13.9325C14.46 13.6184 15.75 12.2544 15.75 10.625C15.75 8.76406 14.0681 7.25 12 7.25ZM21.75 12.5C21.75 17.8848 17.3848 22.25 12 22.25C6.61522 22.25 2.25 17.8848 2.25 12.5C2.25 7.11522 6.61522 2.75 12 2.75C17.3824 2.75568 21.7443 7.11758 21.75 12.5ZM20.25 12.5C20.25 7.94365 16.5563 4.25 12 4.25C7.44365 4.25 3.75 7.94365 3.75 12.5C3.75 17.0563 7.44365 20.75 12 20.75C16.5542 20.7448 20.2448 17.0542 20.25 12.5Z" fill="white"/>
</g>
<defs>
<clipPath id="clip0_16_6407">
<rect width="24" height="24" fill="white" transform="translate(0 0.5)"/>
</clipPath>
</defs>
</svg>
